<svg version="1.1" xmlns="http://www.w3.org/2000/svg" viewBox="0 0 601 568.5" width="601" height="568.5" filter="invert(93%) hue-rotate(180deg)">
  <!-- svg-source:excalidraw -->
  
  <defs>
    <style class="style-fonts">
      @font-face {
        font-family: "Virgil";
        src: url("https://excalidraw.com/Virgil.woff2");
      }
      @font-face {
        font-family: "Cascadia";
        src: url("https://excalidraw.com/Cascadia.woff2");
      }
    </style>
    
  </defs>
  <rect x="0" y="0" width="601" height="568.5" fill="#ffffff"></rect><g stroke-linecap="round" transform="translate(10 52) rotate(0 289.5 39.5)"><path d="M19.75 0 M19.75 0 C145.9 0, 272.05 0, 559.25 0 M19.75 0 C196.21 0, 372.66 0, 559.25 0 M559.25 0 C572.42 0, 579 6.58, 579 19.75 M559.25 0 C572.42 0, 579 6.58, 579 19.75 M579 19.75 C579 31.1, 579 42.45, 579 59.25 M579 19.75 C579 32.16, 579 44.58, 579 59.25 M579 59.25 C579 72.42, 572.42 79, 559.25 79 M579 59.25 C579 72.42, 572.42 79, 559.25 79 M559.25 79 C419.3 79, 279.36 79, 19.75 79 M559.25 79 C420.65 79, 282.05 79, 19.75 79 M19.75 79 C6.58 79, 0 72.42, 0 59.25 M19.75 79 C6.58 79, 0 72.42, 0 59.25 M0 59.25 C0 46.45, 0 33.66, 0 19.75 M0 59.25 C0 49.7, 0 40.15, 0 19.75 M0 19.75 C0 6.58, 6.58 0, 19.75 0 M0 19.75 C0 6.58, 6.58 0, 19.75 0" stroke="#000000" stroke-width="1" fill="none"></path></g><g transform="translate(133 10) rotate(0 64.35995483398438 12.5)"><text x="0" y="0" font-family="Virgil, Segoe UI Emoji" font-size="20px" fill="#000000" text-anchor="start" style="white-space: pre;" direction="ltr" dominant-baseline="text-before-edge">SET Payload</text></g><g stroke-linecap="round"><g transform="translate(61 54) rotate(0 0.5 37)"><path d="M0 0 C0.17 12.33, 0.83 61.67, 1 74 M0 0 C0.17 12.33, 0.83 61.67, 1 74" stroke="#000000" stroke-width="1" fill="none"></path></g></g><mask></mask><g stroke-linecap="round"><g transform="translate(111 52) rotate(0 0 39.5)"><path d="M0 0 C0 13.17, 0 65.83, 0 79 M0 0 C0 13.17, 0 65.83, 0 79" stroke="#000000" stroke-width="1" fill="none"></path></g></g><mask></mask><g transform="translate(15 77) rotate(0 20.739974975585938 12.5)"><text x="0" y="0" font-family="Virgil, Segoe UI Emoji" font-size="20px" fill="#000000" text-anchor="start" style="white-space: pre;" direction="ltr" dominant-baseline="text-before-edge">type</text></g><g transform="translate(67 67) rotate(0 18.809974670410156 25)"><text x="0" y="0" font-family="Virgil, Segoe UI Emoji" font-size="20px" fill="#000000" text-anchor="start" style="white-space: pre;" direction="ltr" dominant-baseline="text-before-edge">key</text><text x="0" y="25" font-family="Virgil, Segoe UI Emoji" font-size="20px" fill="#000000" text-anchor="start" style="white-space: pre;" direction="ltr" dominant-baseline="text-before-edge">size</text></g><g stroke-linecap="round" transform="translate(407 52) rotate(0 92 40.5)"><path d="M5.39 4.69 C5.39 4.69, 5.39 4.69, 5.39 4.69 M5.39 4.69 C5.39 4.69, 5.39 4.69, 5.39 4.69 M1.19 15.61 C5.42 10.75, 9.64 5.9, 13 2.03 M1.19 15.61 C4.32 12.01, 7.45 8.41, 13 2.03 M0.93 22.01 C5.05 17.27, 9.17 12.53, 18.64 1.63 M0.93 22.01 C4.7 17.67, 8.47 13.33, 18.64 1.63 M0.67 28.41 C7.21 20.89, 13.74 13.37, 22.98 2.75 M0.67 28.41 C6.65 21.52, 12.64 14.64, 22.98 2.75 M1.06 34.05 C11.26 22.32, 21.46 10.58, 28.62 2.35 M1.06 34.05 C9.31 24.57, 17.55 15.09, 28.62 2.35 M0.8 40.45 C13.89 25.39, 26.99 10.33, 33.61 2.71 M0.8 40.45 C8.26 31.87, 15.71 23.3, 33.61 2.71 M0.54 46.85 C15.19 29.99, 29.85 13.13, 39.25 2.32 M0.54 46.85 C12.87 32.66, 25.2 18.47, 39.25 2.32 M0.94 52.49 C10.9 41.02, 20.87 29.56, 44.24 2.68 M0.94 52.49 C17.13 33.86, 33.32 15.24, 44.24 2.68 M0.67 58.89 C18.29 38.62, 35.91 18.35, 49.88 2.28 M0.67 58.89 C11.48 46.46, 22.28 34.03, 49.88 2.28 M1.07 64.53 C17.63 45.48, 34.19 26.43, 54.87 2.64 M1.07 64.53 C17.1 46.09, 33.13 27.65, 54.87 2.64 M3.43 67.91 C22.06 46.48, 40.68 25.05, 60.51 2.25 M3.43 67.91 C23.88 44.39, 44.33 20.86, 60.51 2.25 M3.83 73.55 C17.44 57.89, 31.06 42.23, 65.5 2.61 M3.83 73.55 C19.06 56.03, 34.29 38.51, 65.5 2.61 M6.19 76.93 C26.86 53.15, 47.53 29.38, 71.14 2.21 M6.19 76.93 C32.08 47.15, 57.97 17.36, 71.14 2.21 M9.86 78.8 C31.4 54.03, 52.93 29.26, 76.13 2.57 M9.86 78.8 C24.86 61.54, 39.86 44.29, 76.13 2.57 M12.88 81.42 C32.57 58.78, 52.25 36.13, 81.77 2.18 M12.88 81.42 C27.52 64.58, 42.17 47.74, 81.77 2.18 M17.87 81.78 C34.64 62.49, 51.41 43.2, 86.76 2.54 M17.87 81.78 C38.49 58.06, 59.11 34.34, 86.76 2.54 M22.2 82.9 C49.89 51.05, 77.58 19.19, 91.74 2.9 M22.2 82.9 C48.6 52.53, 74.99 22.17, 91.74 2.9 M27.84 82.5 C53.34 53.17, 78.84 23.84, 97.39 2.51 M27.84 82.5 C47.8 59.55, 67.76 36.59, 97.39 2.51 M32.83 82.86 C56.6 55.52, 80.37 28.17, 102.37 2.87 M32.83 82.86 C52.8 59.89, 72.77 36.92, 102.37 2.87 M38.47 82.47 C62.95 54.31, 87.43 26.15, 108.02 2.47 M38.47 82.47 C57.11 61.03, 75.75 39.59, 108.02 2.47 M43.46 82.83 C58.78 65.2, 74.11 47.58, 113 2.83 M43.46 82.83 C59.49 64.39, 75.52 45.95, 113 2.83 M49.1 82.44 C64.69 64.5, 80.29 46.57, 118.65 2.44 M49.1 82.44 C68.52 60.11, 87.93 37.77, 118.65 2.44 M54.09 82.8 C71.79 62.44, 89.48 42.08, 123.63 2.8 M54.09 82.8 C75.84 57.78, 97.58 32.77, 123.63 2.8 M59.08 83.16 C78.39 60.94, 97.7 38.73, 129.28 2.4 M59.08 83.16 C74.16 65.81, 89.24 48.46, 129.28 2.4 M64.72 82.76 C84.35 60.19, 103.97 37.61, 134.26 2.76 M64.72 82.76 C88.68 55.19, 112.65 27.63, 134.26 2.76 M69.71 83.12 C95.24 53.75, 120.78 24.38, 139.91 2.37 M69.71 83.12 C92.68 56.69, 115.66 30.26, 139.91 2.37 M75.35 82.73 C93.34 62.03, 111.33 41.34, 144.89 2.73 M75.35 82.73 C99.33 55.14, 123.32 27.55, 144.89 2.73 M80.34 83.09 C95.53 65.61, 110.72 48.14, 150.54 2.33 M80.34 83.09 C103.27 56.71, 126.2 30.33, 150.54 2.33 M85.98 82.69 C110.75 54.2, 135.52 25.7, 155.52 2.69 M85.98 82.69 C102.67 63.49, 119.36 44.29, 155.52 2.69 M90.97 83.05 C113.89 56.68, 136.81 30.32, 161.17 2.3 M90.97 83.05 C110.68 60.37, 130.4 37.69, 161.17 2.3 M96.61 82.66 C115 61.51, 133.38 40.36, 166.15 2.66 M96.61 82.66 C121.95 53.51, 147.28 24.36, 166.15 2.66 M101.6 83.02 C119.64 62.26, 137.69 41.5, 172.45 1.51 M101.6 83.02 C123.95 57.3, 146.31 31.58, 172.45 1.51 M107.24 82.62 C127.21 59.66, 147.17 36.69, 176.13 3.38 M107.24 82.62 C132.04 54.1, 156.83 25.58, 176.13 3.38 M112.23 82.98 C134.44 57.43, 156.66 31.87, 179.8 5.25 M112.23 82.98 C133.46 58.56, 154.69 34.13, 179.8 5.25 M117.87 82.59 C134.36 63.62, 150.86 44.64, 182.17 8.63 M117.87 82.59 C135.67 62.12, 153.46 41.65, 182.17 8.63 M122.86 82.95 C143.83 58.83, 164.8 34.71, 183.87 12.76 M122.86 82.95 C136.18 67.63, 149.49 52.31, 183.87 12.76 M128.5 82.55 C140.23 69.06, 151.96 55.57, 185.58 16.89 M128.5 82.55 C144.06 64.66, 159.61 46.77, 185.58 16.89 M133.49 82.91 C147.05 67.32, 160.61 51.72, 185.32 23.29 M133.49 82.91 C150.43 63.43, 167.37 43.94, 185.32 23.29 M139.13 82.52 C152.88 66.71, 166.62 50.89, 185.71 28.94 M139.13 82.52 C153.7 65.76, 168.27 49, 185.71 28.94 M144.12 82.88 C157.02 68.04, 169.91 53.21, 185.45 35.33 M144.12 82.88 C160.52 64.01, 176.92 45.14, 185.45 35.33 M149.76 82.49 C160.61 70, 171.47 57.52, 185.85 40.98 M149.76 82.49 C159.54 71.24, 169.31 59.99, 185.85 40.98 M154.75 82.85 C163.73 72.51, 172.72 62.17, 185.58 47.37 M154.75 82.85 C165.33 70.68, 175.91 58.51, 185.58 47.37 M160.39 82.45 C168.45 73.18, 176.52 63.9, 185.98 53.02 M160.39 82.45 C166.23 75.74, 172.06 69.02, 185.98 53.02 M165.38 82.81 C170.39 77.04, 175.4 71.28, 184.4 60.92 M165.38 82.81 C171.81 75.41, 178.25 68.01, 184.4 60.92 M172.99 80.15 C175.59 77.16, 178.2 74.16, 183.49 68.08 M172.99 80.15 C176.91 75.64, 180.83 71.14, 183.49 68.08" stroke="#a5d8ff" stroke-width="0.5" fill="none"></path><path d="M20.25 0 M20.25 0 C57.45 0, 94.65 0, 163.75 0 M20.25 0 C65.08 0, 109.91 0, 163.75 0 M163.75 0 C177.25 0, 184 6.75, 184 20.25 M163.75 0 C177.25 0, 184 6.75, 184 20.25 M184 20.25 C184 29.79, 184 39.34, 184 60.75 M184 20.25 C184 33.15, 184 46.06, 184 60.75 M184 60.75 C184 74.25, 177.25 81, 163.75 81 M184 60.75 C184 74.25, 177.25 81, 163.75 81 M163.75 81 C122.75 81, 81.76 81, 20.25 81 M163.75 81 C132.72 81, 101.68 81, 20.25 81 M20.25 81 C6.75 81, 0 74.25, 0 60.75 M20.25 81 C6.75 81, 0 74.25, 0 60.75 M0 60.75 C0 46.89, 0 33.04, 0 20.25 M0 60.75 C0 45.72, 0 30.69, 0 20.25 M0 20.25 C0 6.75, 6.75 0, 20.25 0 M0 20.25 C0 6.75, 6.75 0, 20.25 0" stroke="#000000" stroke-width="1" fill="none"></path></g><g transform="translate(473.3200225830078 80) rotate(0 25.679977416992188 12.5)"><text x="25.679977416992188" y="0" font-family="Virgil, Segoe UI Emoji" font-size="20px" fill="#000000" text-anchor="middle" style="white-space: pre;" direction="ltr" dominant-baseline="text-before-edge">value</text></g><g stroke-linecap="round"><g transform="translate(208 124) rotate(0 31.5 39.5)"><path d="M0 0 C10.5 13.17, 52.5 65.83, 63 79 M0 0 C10.5 13.17, 52.5 65.83, 63 79" stroke="#000000" stroke-width="1" fill="none"></path></g></g><mask></mask><g transform="translate(287 192) rotate(0 77.22993469238281 37.5)"><text x="0" y="0" font-family="Virgil, Segoe UI Emoji" font-size="20px" fill="#000000" text-anchor="start" style="white-space: pre;" direction="ltr" dominant-baseline="text-before-edge">dependent on </text><text x="0" y="25" font-family="Virgil, Segoe UI Emoji" font-size="20px" fill="#000000" text-anchor="start" style="white-space: pre;" direction="ltr" dominant-baseline="text-before-edge">the size </text><text x="0" y="50" font-family="Virgil, Segoe UI Emoji" font-size="20px" fill="#000000" text-anchor="start" style="white-space: pre;" direction="ltr" dominant-baseline="text-before-edge">also the type* </text></g><g stroke-linecap="round"><g transform="translate(218 51) rotate(0 -0.5 40)"><path d="M0 0 C-0.17 13.33, -0.83 66.67, -1 80 M0 0 C-0.17 13.33, -0.83 66.67, -1 80" stroke="#000000" stroke-width="1" fill="none"></path></g></g><mask></mask><g transform="translate(179 78) rotate(0 13.929985046386719 12.5)"><text x="0" y="0" font-family="Virgil, Segoe UI Emoji" font-size="20px" fill="#000000" text-anchor="start" style="white-space: pre;" direction="ltr" dominant-baseline="text-before-edge">ttl</text></g><g stroke-linecap="round" transform="translate(36.27006530761719 343.5) rotate(0 189.5 39.5)"><path d="M19.75 0 M19.75 0 C95.31 0, 170.87 0, 359.25 0 M19.75 0 C111.75 0, 203.75 0, 359.25 0 M359.25 0 C372.42 0, 379 6.58, 379 19.75 M359.25 0 C372.42 0, 379 6.58, 379 19.75 M379 19.75 C379 33.6, 379 47.45, 379 59.25 M379 19.75 C379 31.83, 379 43.91, 379 59.25 M379 59.25 C379 72.42, 372.42 79, 359.25 79 M379 59.25 C379 72.42, 372.42 79, 359.25 79 M359.25 79 C248.37 79, 137.49 79, 19.75 79 M359.25 79 C239.12 79, 118.99 79, 19.75 79 M19.75 79 C6.58 79, 0 72.42, 0 59.25 M19.75 79 C6.58 79, 0 72.42, 0 59.25 M0 59.25 C0 48.64, 0 38.03, 0 19.75 M0 59.25 C0 44.66, 0 30.06, 0 19.75 M0 19.75 C0 6.58, 6.58 0, 19.75 0 M0 19.75 C0 6.58, 6.58 0, 19.75 0" stroke="#000000" stroke-width="1" fill="none"></path></g><g transform="translate(129.2700653076172 301.5) rotate(0 66.16996002197266 12.5)"><text x="0" y="0" font-family="Virgil, Segoe UI Emoji" font-size="20px" fill="#000000" text-anchor="start" style="white-space: pre;" direction="ltr" dominant-baseline="text-before-edge">GET Payload</text></g><g stroke-linecap="round"><g transform="translate(90.27006530761719 345.5) rotate(0 0.5 37)"><path d="M0 0 C0.17 12.33, 0.83 61.67, 1 74 M0 0 C0.17 12.33, 0.83 61.67, 1 74" stroke="#000000" stroke-width="1" fill="none"></path></g></g><mask></mask><g stroke-linecap="round"><g transform="translate(150.2700653076172 343.5) rotate(0 0 39.5)"><path d="M0 0 C0 13.17, 0 65.83, 0 79 M0 0 C0 13.17, 0 65.83, 0 79" stroke="#000000" stroke-width="1" fill="none"></path></g></g><mask></mask><g transform="translate(43.27006530761719 370.5) rotate(0 20.739974975585938 12.5)"><text x="0" y="0" font-family="Virgil, Segoe UI Emoji" font-size="20px" fill="#000000" text-anchor="start" style="white-space: pre;" direction="ltr" dominant-baseline="text-before-edge">type</text></g><g transform="translate(102.27006530761719 363.5) rotate(0 18.809974670410156 25)"><text x="0" y="0" font-family="Virgil, Segoe UI Emoji" font-size="20px" fill="#000000" text-anchor="start" style="white-space: pre;" direction="ltr" dominant-baseline="text-before-edge">key</text><text x="0" y="25" font-family="Virgil, Segoe UI Emoji" font-size="20px" fill="#000000" text-anchor="start" style="white-space: pre;" direction="ltr" dominant-baseline="text-before-edge">size</text></g><g stroke-linecap="round" transform="translate(154.2700653076172 343.5) rotate(0 130 40.5)"><path d="M5.39 4.69 C5.39 4.69, 5.39 4.69, 5.39 4.69 M5.39 4.69 C5.39 4.69, 5.39 4.69, 5.39 4.69 M1.19 15.61 C5.62 10.52, 10.05 5.42, 13 2.03 M1.19 15.61 C4.72 11.55, 8.25 7.49, 13 2.03 M0.93 22.01 C6.31 15.82, 11.7 9.63, 18.64 1.63 M0.93 22.01 C7.49 14.46, 14.06 6.91, 18.64 1.63 M0.67 28.41 C7.62 20.41, 14.56 12.42, 22.98 2.75 M0.67 28.41 C9.31 18.47, 17.95 8.52, 22.98 2.75 M1.06 34.05 C11.42 22.14, 21.78 10.22, 28.62 2.35 M1.06 34.05 C11.87 21.62, 22.68 9.19, 28.62 2.35 M0.8 40.45 C8 32.17, 15.19 23.9, 33.61 2.71 M0.8 40.45 C12.29 27.23, 23.78 14.02, 33.61 2.71 M0.54 46.85 C12.11 33.54, 23.67 20.24, 39.25 2.32 M0.54 46.85 C12.51 33.07, 24.48 19.3, 39.25 2.32 M0.94 52.49 C13.79 37.7, 26.65 22.91, 44.24 2.68 M0.94 52.49 C12.14 39.6, 23.35 26.7, 44.24 2.68 M0.67 58.89 C16.05 41.2, 31.42 23.52, 49.88 2.28 M0.67 58.89 C14.91 42.51, 29.15 26.13, 49.88 2.28 M1.07 64.53 C19.93 42.83, 38.79 21.14, 54.87 2.64 M1.07 64.53 C14.62 48.94, 28.17 33.35, 54.87 2.64 M3.43 67.91 C21.37 47.27, 39.31 26.64, 60.51 2.25 M3.43 67.91 C21.54 47.08, 39.65 26.24, 60.51 2.25 M3.83 73.55 C21.97 52.68, 40.11 31.81, 65.5 2.61 M3.83 73.55 C18.35 56.85, 32.87 40.14, 65.5 2.61 M6.19 76.93 C29.56 50.05, 52.93 23.16, 71.14 2.21 M6.19 76.93 C25.35 54.88, 44.52 32.84, 71.14 2.21 M9.86 78.8 C26.41 59.77, 42.95 40.74, 76.13 2.57 M9.86 78.8 C35.22 49.64, 60.57 20.47, 76.13 2.57 M12.88 81.42 C37.83 52.72, 62.78 24.02, 81.77 2.18 M12.88 81.42 C36.44 54.33, 59.99 27.23, 81.77 2.18 M17.87 81.78 C34.85 62.25, 51.82 42.72, 86.76 2.54 M17.87 81.78 C33.96 63.27, 50.05 44.76, 86.76 2.54 M22.2 82.9 C49.5 51.5, 76.79 20.1, 91.74 2.9 M22.2 82.9 C42.66 59.36, 63.13 35.82, 91.74 2.9 M27.84 82.5 C50.24 56.74, 72.64 30.97, 97.39 2.51 M27.84 82.5 C55.38 50.83, 82.92 19.15, 97.39 2.51 M32.83 82.86 C59.22 52.51, 85.61 22.15, 102.37 2.87 M32.83 82.86 C47.13 66.41, 61.44 49.96, 102.37 2.87 M38.47 82.47 C53.9 64.72, 69.33 46.98, 108.02 2.47 M38.47 82.47 C55.47 62.92, 72.47 43.36, 108.02 2.47 M43.46 82.83 C58.06 66.04, 72.65 49.25, 113 2.83 M43.46 82.83 C60.63 63.08, 77.8 43.32, 113 2.83 M49.1 82.44 C69.87 58.54, 90.64 34.65, 118.65 2.44 M49.1 82.44 C64.46 64.77, 79.81 47.11, 118.65 2.44 M54.09 82.8 C69.95 64.55, 85.81 46.3, 123.63 2.8 M54.09 82.8 C68.42 66.32, 82.74 49.84, 123.63 2.8 M59.08 83.16 C74.06 65.92, 89.05 48.68, 129.28 2.4 M59.08 83.16 C82.53 56.17, 105.99 29.19, 129.28 2.4 M64.72 82.76 C88.11 55.85, 111.51 28.94, 134.26 2.76 M64.72 82.76 C91.7 51.72, 118.69 20.68, 134.26 2.76 M69.71 83.12 C86.2 64.15, 102.7 45.17, 139.91 2.37 M69.71 83.12 C88.01 62.07, 106.31 41.01, 139.91 2.37 M75.35 82.73 C95.86 59.14, 116.36 35.55, 144.89 2.73 M75.35 82.73 C97.28 57.5, 119.21 32.28, 144.89 2.73 M80.34 83.09 C104.18 55.66, 128.02 28.24, 150.54 2.33 M80.34 83.09 C97.47 63.38, 114.59 43.68, 150.54 2.33 M85.98 82.69 C101.38 64.98, 116.77 47.27, 155.52 2.69 M85.98 82.69 C101.8 64.5, 117.62 46.3, 155.52 2.69 M90.97 83.05 C112.85 57.88, 134.73 32.71, 161.17 2.3 M90.97 83.05 C118.66 51.19, 146.36 19.34, 161.17 2.3 M96.61 82.66 C116.9 59.32, 137.19 35.98, 166.15 2.66 M96.61 82.66 C123.12 52.17, 149.62 21.67, 166.15 2.66 M101.6 83.02 C118.68 63.37, 135.76 43.72, 171.8 2.26 M101.6 83.02 C128.98 51.51, 156.37 20.01, 171.8 2.26 M107.24 82.62 C123.89 63.47, 140.53 44.32, 176.78 2.62 M107.24 82.62 C131.6 54.6, 155.96 26.58, 176.78 2.62 M112.23 82.98 C128.69 64.05, 145.15 45.11, 182.43 2.23 M112.23 82.98 C138.61 52.63, 164.99 22.28, 182.43 2.23 M117.87 82.59 C135.65 62.14, 153.43 41.69, 187.41 2.59 M117.87 82.59 C140.54 56.52, 163.2 30.44, 187.41 2.59 M122.86 82.95 C143.42 59.3, 163.97 35.65, 193.06 2.2 M122.86 82.95 C141.38 61.65, 159.9 40.34, 193.06 2.2 M128.5 82.55 C148.65 59.38, 168.79 36.2, 198.04 2.56 M128.5 82.55 C143.55 65.24, 158.6 47.93, 198.04 2.56 M133.49 82.91 C149.92 64.02, 166.34 45.12, 203.69 2.16 M133.49 82.91 C149.87 64.06, 166.26 45.21, 203.69 2.16 M139.13 82.52 C163.37 54.64, 187.6 26.76, 208.67 2.52 M139.13 82.52 C163.27 54.75, 187.41 26.98, 208.67 2.52 M144.12 82.88 C170.64 52.38, 197.15 21.87, 213.66 2.88 M144.12 82.88 C160.2 64.38, 176.28 45.88, 213.66 2.88 M149.76 82.49 C177.36 50.74, 204.95 19, 219.3 2.49 M149.76 82.49 C174.85 53.63, 199.94 24.77, 219.3 2.49 M154.75 82.85 C173.24 61.57, 191.74 40.29, 224.29 2.85 M154.75 82.85 C173.59 61.17, 192.44 39.49, 224.29 2.85 M160.39 82.45 C178.28 61.88, 196.16 41.3, 229.93 2.45 M160.39 82.45 C182.45 57.08, 204.5 31.71, 229.93 2.45 M165.38 82.81 C188.11 56.66, 210.85 30.51, 234.92 2.81 M165.38 82.81 C188.58 56.12, 211.78 29.43, 234.92 2.81 M171.02 82.42 C192.79 57.38, 214.56 32.34, 241.22 1.66 M171.02 82.42 C198.63 50.65, 226.25 18.89, 241.22 1.66 M176.01 82.78 C190.82 65.74, 205.63 48.71, 246.21 2.02 M176.01 82.78 C194.77 61.2, 213.53 39.62, 246.21 2.02 M181 83.14 C208.37 51.64, 235.75 20.15, 250.54 3.14 M181 83.14 C207.67 52.45, 234.34 21.77, 250.54 3.14 M186.64 82.74 C205.07 61.54, 223.5 40.34, 254.21 5.01 M186.64 82.74 C206.04 60.42, 225.45 38.1, 254.21 5.01 M191.63 83.1 C211.57 60.16, 231.51 37.22, 257.23 7.63 M191.63 83.1 C217.81 52.98, 243.99 22.86, 257.23 7.63 M197.27 82.71 C214.57 62.81, 231.87 42.9, 260.25 10.26 M197.27 82.71 C214.64 62.72, 232.02 42.73, 260.25 10.26 M202.26 83.07 C219.47 63.27, 236.68 43.46, 260.65 15.9 M202.26 83.07 C223.78 58.3, 245.31 33.54, 260.65 15.9 M207.9 82.67 C222.96 65.34, 238.03 48.01, 260.38 22.3 M207.9 82.67 C222.76 65.58, 237.61 48.49, 260.38 22.3 M212.89 83.03 C230.98 62.22, 249.08 41.4, 260.78 27.94 M212.89 83.03 C229.08 64.41, 245.27 45.79, 260.78 27.94 M218.53 82.64 C234.81 63.91, 251.1 45.17, 260.52 34.34 M218.53 82.64 C228 71.74, 237.48 60.84, 260.52 34.34 M223.52 83 C231.84 73.43, 240.16 63.85, 260.91 39.98 M223.52 83 C237.36 67.08, 251.2 51.15, 260.91 39.98 M229.16 82.6 C240.59 69.46, 252.02 56.31, 260.65 46.38 M229.16 82.6 C241.36 68.56, 253.57 54.52, 260.65 46.38 M234.15 82.96 C240.87 75.23, 247.59 67.5, 260.39 52.78 M234.15 82.96 C240.58 75.57, 247.01 68.17, 260.39 52.78 M240.45 81.81 C244.64 76.99, 248.83 72.17, 260.78 58.42 M240.45 81.81 C246.96 74.32, 253.47 66.83, 260.78 58.42 M246.74 80.67 C252.47 74.08, 258.2 67.49, 262.49 62.55 M246.74 80.67 C252.42 74.14, 258.09 67.62, 262.49 62.55" stroke="#a5d8ff" stroke-width="0.5" fill="none"></path><path d="M20.25 0 M20.25 0 C68.24 0, 116.22 0, 239.75 0 M20.25 0 C95.29 0, 170.33 0, 239.75 0 M239.75 0 C253.25 0, 260 6.75, 260 20.25 M239.75 0 C253.25 0, 260 6.75, 260 20.25 M260 20.25 C260 33.78, 260 47.32, 260 60.75 M260 20.25 C260 28.51, 260 36.77, 260 60.75 M260 60.75 C260 74.25, 253.25 81, 239.75 81 M260 60.75 C260 74.25, 253.25 81, 239.75 81 M239.75 81 C160.6 81, 81.46 81, 20.25 81 M239.75 81 C186.72 81, 133.7 81, 20.25 81 M20.25 81 C6.75 81, 0 74.25, 0 60.75 M20.25 81 C6.75 81, 0 74.25, 0 60.75 M0 60.75 C0 45.05, 0 29.35, 0 20.25 M0 60.75 C0 49.93, 0 39.11, 0 20.25 M0 20.25 C0 6.75, 6.75 0, 20.25 0 M0 20.25 C0 6.75, 6.75 0, 20.25 0" stroke="#000000" stroke-width="1" fill="none"></path></g><g transform="translate(269.2400817871094 371.5) rotate(0 15.029983520507812 12.5)"><text x="15.029983520507812" y="0" font-family="Virgil, Segoe UI Emoji" font-size="20px" fill="#000000" text-anchor="middle" style="white-space: pre;" direction="ltr" dominant-baseline="text-before-edge">key</text></g><g stroke-linecap="round"><g transform="translate(204.2700653076172 415.5) rotate(0 31.5 39.5)"><path d="M0 0 C10.5 13.17, 52.5 65.83, 63 79 M0 0 C10.5 13.17, 52.5 65.83, 63 79" stroke="#000000" stroke-width="1" fill="none"></path></g></g><mask></mask><g transform="translate(283.2700653076172 483.5) rotate(0 77.22993469238281 37.5)"><text x="0" y="0" font-family="Virgil, Segoe UI Emoji" font-size="20px" fill="#000000" text-anchor="start" style="white-space: pre;" direction="ltr" dominant-baseline="text-before-edge">dependent on </text><text x="0" y="25" font-family="Virgil, Segoe UI Emoji" font-size="20px" fill="#000000" text-anchor="start" style="white-space: pre;" direction="ltr" dominant-baseline="text-before-edge">the size </text><text x="0" y="50" font-family="Virgil, Segoe UI Emoji" font-size="20px" fill="#000000" text-anchor="start" style="white-space: pre;" direction="ltr" dominant-baseline="text-before-edge">also the type* </text></g><g transform="translate(113.19002532958984 69) rotate(0 25.679977416992188 25)"><text x="0" y="0" font-family="Virgil, Segoe UI Emoji" font-size="20px" fill="#000000" text-anchor="start" style="white-space: pre;" direction="ltr" dominant-baseline="text-before-edge">value</text><text x="0" y="25" font-family="Virgil, Segoe UI Emoji" font-size="20px" fill="#000000" text-anchor="start" style="white-space: pre;" direction="ltr" dominant-baseline="text-before-edge">size</text></g><g stroke-linecap="round"><g transform="translate(167 53.5) rotate(0 0 39.5)"><path d="M0 0 C0 13.17, 0 65.83, 0 79 M0 0 C0 13.17, 0 65.83, 0 79" stroke="#000000" stroke-width="1" fill="none"></path></g></g><mask></mask><g stroke-linecap="round" transform="translate(222 51.5) rotate(0 92 40.5)"><path d="M5.39 4.69 C5.39 4.69, 5.39 4.69, 5.39 4.69 M5.39 4.69 C5.39 4.69, 5.39 4.69, 5.39 4.69 M1.19 15.61 C4 12.38, 6.81 9.15, 13 2.03 M1.19 15.61 C5.13 11.09, 9.06 6.56, 13 2.03 M0.93 22.01 C6.83 15.23, 12.73 8.44, 18.64 1.63 M0.93 22.01 C7.77 14.15, 14.6 6.28, 18.64 1.63 M0.67 28.41 C6.51 21.69, 12.35 14.98, 22.98 2.75 M0.67 28.41 C9.2 18.59, 17.74 8.77, 22.98 2.75 M1.06 34.05 C10.4 23.31, 19.74 12.57, 28.62 2.35 M1.06 34.05 C7.72 26.39, 14.38 18.73, 28.62 2.35 M0.8 40.45 C13.87 25.41, 26.94 10.38, 33.61 2.71 M0.8 40.45 C8.32 31.8, 15.83 23.16, 33.61 2.71 M0.54 46.85 C15.4 29.75, 30.27 12.65, 39.25 2.32 M0.54 46.85 C12.87 32.66, 25.21 18.47, 39.25 2.32 M0.94 52.49 C11.32 40.54, 21.71 28.59, 44.24 2.68 M0.94 52.49 C11.78 40.02, 22.62 27.54, 44.24 2.68 M0.67 58.89 C15.52 41.81, 30.36 24.74, 49.88 2.28 M0.67 58.89 C14.98 42.43, 29.29 25.97, 49.88 2.28 M1.07 64.53 C21.85 40.63, 42.63 16.72, 54.87 2.64 M1.07 64.53 C16.75 46.49, 32.43 28.46, 54.87 2.64 M3.43 67.91 C25.31 42.74, 47.18 17.58, 60.51 2.25 M3.43 67.91 C17.65 51.55, 31.87 35.2, 60.51 2.25 M3.83 73.55 C25.11 49.07, 46.4 24.58, 65.5 2.61 M3.83 73.55 C26.3 47.7, 48.78 21.84, 65.5 2.61 M6.19 76.93 C24.24 56.16, 42.3 35.39, 71.14 2.21 M6.19 76.93 C19.3 61.84, 32.42 46.76, 71.14 2.21 M9.86 78.8 C25.25 61.11, 40.63 43.41, 76.13 2.57 M9.86 78.8 C32.98 52.21, 56.09 25.63, 76.13 2.57 M12.88 81.42 C33.05 58.22, 53.22 35.02, 81.77 2.18 M12.88 81.42 C38.7 51.73, 64.51 22.04, 81.77 2.18 M17.87 81.78 C36.51 60.34, 55.15 38.9, 86.76 2.54 M17.87 81.78 C37.92 58.72, 57.96 35.66, 86.76 2.54 M22.2 82.9 C42.53 59.51, 62.86 36.12, 91.74 2.9 M22.2 82.9 C43.77 58.09, 65.33 33.28, 91.74 2.9 M27.84 82.5 C48.13 59.17, 68.41 35.84, 97.39 2.51 M27.84 82.5 C49.04 58.12, 70.25 33.73, 97.39 2.51 M32.83 82.86 C60.6 50.92, 88.38 18.97, 102.37 2.87 M32.83 82.86 C58.42 53.43, 84.01 23.99, 102.37 2.87 M38.47 82.47 C54.77 63.72, 71.07 44.97, 108.02 2.47 M38.47 82.47 C57.34 60.77, 76.2 39.07, 108.02 2.47 M43.46 82.83 C63.92 59.3, 84.38 35.76, 113 2.83 M43.46 82.83 C59.13 64.81, 74.79 46.79, 113 2.83 M49.1 82.44 C66.18 62.8, 83.25 43.15, 118.65 2.44 M49.1 82.44 C72.63 55.37, 96.17 28.3, 118.65 2.44 M54.09 82.8 C76 57.6, 97.9 32.4, 123.63 2.8 M54.09 82.8 C80.26 52.69, 106.43 22.59, 123.63 2.8 M59.08 83.16 C85.73 52.49, 112.39 21.83, 129.28 2.4 M59.08 83.16 C74.62 65.27, 90.17 47.39, 129.28 2.4 M64.72 82.76 C89.61 54.14, 114.49 25.51, 134.26 2.76 M64.72 82.76 C80.88 64.17, 97.04 45.58, 134.26 2.76 M69.71 83.12 C90.72 58.95, 111.73 34.78, 139.91 2.37 M69.71 83.12 C90.98 58.65, 112.25 34.18, 139.91 2.37 M75.35 82.73 C101.54 52.6, 127.72 22.48, 144.89 2.73 M75.35 82.73 C90.8 64.96, 106.25 47.18, 144.89 2.73 M80.34 83.09 C106.64 52.83, 132.94 22.57, 150.54 2.33 M80.34 83.09 C103.7 56.22, 127.05 29.35, 150.54 2.33 M85.98 82.69 C105.64 60.07, 125.31 37.45, 155.52 2.69 M85.98 82.69 C106.24 59.38, 126.51 36.07, 155.52 2.69 M90.97 83.05 C117.91 52.06, 144.85 21.06, 161.17 2.3 M90.97 83.05 C113.96 56.6, 136.95 30.16, 161.17 2.3 M96.61 82.66 C113.71 62.98, 130.82 43.31, 166.15 2.66 M96.61 82.66 C110.73 66.42, 124.85 50.18, 166.15 2.66 M101.6 83.02 C116.66 65.69, 131.72 48.37, 172.45 1.51 M101.6 83.02 C120.83 60.9, 140.05 38.78, 172.45 1.51 M107.24 82.62 C134.34 51.45, 161.43 20.28, 176.13 3.38 M107.24 82.62 C123.58 63.83, 139.92 45.03, 176.13 3.38 M112.23 82.98 C136.19 55.42, 160.15 27.85, 179.8 5.25 M112.23 82.98 C126.8 66.23, 141.36 49.47, 179.8 5.25 M117.87 82.59 C137.81 59.66, 157.74 36.72, 182.17 8.63 M117.87 82.59 C136.6 61.04, 155.33 39.49, 182.17 8.63 M122.86 82.95 C135.76 68.11, 148.66 53.27, 183.87 12.76 M122.86 82.95 C145.96 56.38, 169.05 29.81, 183.87 12.76 M128.5 82.55 C147.85 60.29, 167.2 38.03, 185.58 16.89 M128.5 82.55 C150.18 57.61, 171.87 32.67, 185.58 16.89 M133.49 82.91 C153.82 59.52, 174.16 36.13, 185.32 23.29 M133.49 82.91 C146.23 68.25, 158.98 53.59, 185.32 23.29 M139.13 82.52 C152.22 67.47, 165.3 52.42, 185.71 28.94 M139.13 82.52 C154.72 64.59, 170.3 46.66, 185.71 28.94 M144.12 82.88 C152.98 72.68, 161.85 62.48, 185.45 35.33 M144.12 82.88 C155.3 70.02, 166.48 57.16, 185.45 35.33 M149.76 82.49 C160.38 70.27, 170.99 58.06, 185.85 40.98 M149.76 82.49 C160.74 69.85, 171.72 57.22, 185.85 40.98 M154.75 82.85 C161 75.65, 167.25 68.46, 185.58 47.37 M154.75 82.85 C166.23 69.64, 177.71 56.44, 185.58 47.37 M160.39 82.45 C170.51 70.82, 180.62 59.18, 185.98 53.02 M160.39 82.45 C166.92 74.94, 173.45 67.43, 185.98 53.02 M165.38 82.81 C172.8 74.28, 180.22 65.74, 184.4 60.92 M165.38 82.81 C169.91 77.59, 174.45 72.38, 184.4 60.92 M172.99 80.15 C176.75 75.83, 180.51 71.5, 183.49 68.08 M172.99 80.15 C175.83 76.89, 178.67 73.62, 183.49 68.08" stroke="#a5d8ff" stroke-width="0.5" fill="none"></path><path d="M20.25 0 M20.25 0 C51.31 0, 82.38 0, 163.75 0 M20.25 0 C52.29 0, 84.33 0, 163.75 0 M163.75 0 C177.25 0, 184 6.75, 184 20.25 M163.75 0 C177.25 0, 184 6.75, 184 20.25 M184 20.25 C184 32.86, 184 45.48, 184 60.75 M184 20.25 C184 28.77, 184 37.29, 184 60.75 M184 60.75 C184 74.25, 177.25 81, 163.75 81 M184 60.75 C184 74.25, 177.25 81, 163.75 81 M163.75 81 C125.31 81, 86.87 81, 20.25 81 M163.75 81 C119.84 81, 75.93 81, 20.25 81 M20.25 81 C6.75 81, 0 74.25, 0 60.75 M20.25 81 C6.75 81, 0 74.25, 0 60.75 M0 60.75 C0 44.93, 0 29.11, 0 20.25 M0 60.75 C0 51.97, 0 43.18, 0 20.25 M0 20.25 C0 6.75, 6.75 0, 20.25 0 M0 20.25 C0 6.75, 6.75 0, 20.25 0" stroke="#000000" stroke-width="1" fill="none"></path></g><g transform="translate(298.9700164794922 79.5) rotate(0 15.029983520507812 12.5)"><text x="15.029983520507812" y="0" font-family="Virgil, Segoe UI Emoji" font-size="20px" fill="#000000" text-anchor="middle" style="white-space: pre;" direction="ltr" dominant-baseline="text-before-edge">key</text></g></svg>